HIERARCHY
ROOT Hips
{
	OFFSET	0.00	0.00	0.00
	CHANNELS 6 Xposition Yposition Zposition Zrotation Xrotation Yrotation
	JOINT Spine
	{
		OFFSET	 0.00	0.01	 0.00
		CHANNELS 3 Zrotation Xrotation Yrotation
		JOINT Spine1
		{
			OFFSET	 0.00	 2.45913012437421	 0.00
			CHANNELS 3 Zrotation Xrotation Yrotation
            JOINT Neck
            {
                OFFSET	 0.00	 2.48462964506057	 0.00
                CHANNELS 3 Zrotation Xrotation Yrotation
                JOINT Head
                {
                    OFFSET	 0.00	 0.927524780924562	 0.00
                    CHANNELS 3 Zrotation Xrotation Yrotation
                    End Site 
                    {
                        OFFSET	 0.00	 1.14999962169752	 0.00
                    }
                }
            }
			JOINT LeftShoulder
			{
				OFFSET	 0.00	 2.48462964506057	 0.00
				CHANNELS 3 Zrotation Xrotation Yrotation
				JOINT LeftUpArm
				{
					OFFSET	 0.00	 1.24881979654096	 0.00
					CHANNELS 3 Zrotation Xrotation Yrotation
					JOINT LeftForeArm
					{
						OFFSET	 0.00	2.59758046908119	 0.00
						CHANNELS 3 Zrotation Xrotation Yrotation
						JOINT LeftHand
						{
							OFFSET	 0.00	2.45542024364365	 0.00
							CHANNELS 3 Zrotation Xrotation Yrotation
							JOINT LeftHandThumb 
							{
								OFFSET	 0.00	0.00	 0.00
								CHANNELS 3 Zrotation Xrotation Yrotation
								End Site
								{
									OFFSET	 0.00	0.00	1.00000003353624
								}
							}
							JOINT L_Wrist_End 
							{
								OFFSET	 0.00	0.99999967115358	 0.00
								CHANNELS 3 Zrotation Xrotation Yrotation
								End Site 
								{
									OFFSET	 0.00	 0.00	 0.00
								}
							}
						}
					}
				}
			}
			JOINT RightShoulder
			{
				OFFSET	 0.00	 2.48462964506057	 0.00
				CHANNELS 3 Zrotation Xrotation Yrotation
				JOINT RightUpArm
				{
					OFFSET	 0.00	 1.24881979654096	 0.00
					CHANNELS 3 Zrotation Xrotation Yrotation
					JOINT RightForeArm
					{
						OFFSET	 0.00	2.59758046908119	 0.00
						CHANNELS 3 Zrotation Xrotation Yrotation
						JOINT RightHand
						{
							OFFSET	 0.00	2.45542024364365	 0.00
							CHANNELS 3 Zrotation Xrotation Yrotation
							JOINT RightHandThumb 
							{
								OFFSET	 0.00	0.00	 0.00
								CHANNELS 3 Zrotation Xrotation Yrotation
								End Site
								{
									OFFSET	 0.00	0.00	1.00000003353624
								}
							}
							JOINT R_Wrist_End 
							{
								OFFSET	 0.00	0.99999967115358	 0.00
								CHANNELS 3 Zrotation Xrotation Yrotation
								End Site 
								{
									OFFSET	 0.00	 0.00	 0.00
								}
							}
						}
					}
				}
			}
		}
	}
	JOINT LeftUpLeg
	{
		OFFSET	 1.2719394002717	 0.00	 0.00
		CHANNELS 3 Zrotation Xrotation Yrotation
		JOINT LeftLowLeg
		{
			OFFSET	 0.00	-4.3429100912261	 0.00
			CHANNELS 3 Zrotation Xrotation Yrotation
			JOINT LeftFoot
			{
				OFFSET	 0.00	-4.48767017425826	 0.00
				CHANNELS 3 Zrotation Xrotation Yrotation
				JOINT LeftToeBase
                {
                    OFFSET	 0.00	0.00	 1.51507020887566
                    CHANNELS 3 Zrotation Xrotation Yrotation
                    End Site 
                    {
                        OFFSET	 0.00	0.00	 0.75000010571191
                    }
                }
			}
		}
	}
	JOINT RightUpLeg
	{
		OFFSET	 -1.2719393604653	 0.00	 0.00
		CHANNELS 3 Zrotation Xrotation Yrotation
		JOINT RightLowLeg
		{
			OFFSET	 0.00	-4.3429100912261	 0.00
			CHANNELS 3 Zrotation Xrotation Yrotation
			JOINT RightFoot
			{
				OFFSET	 0.00	-4.48767017425826	 0.00
				CHANNELS 3 Zrotation Xrotation Yrotation
				JOINT RightToeBase
                {
                    OFFSET	 0.00	0.00	 1.51507020887566
                    CHANNELS 3 Zrotation Xrotation Yrotation
                    End Site 
                    {
                        OFFSET	 0.00	0.00	 0.749999965609858
                    }
                }   
			}
		}
	}
}
MOTION 
Frames:	13 
Frame Time: 0.02 
 -2.2473899841308596 -0.6249449920654296 9.333159790039062 32.3409 83.9432 -36.7141 3.71095 -12.8009 1.40401 -10.8731 23.2309 5.2154 17.2921 49.3726 -9.59545 -23.1436 -86.084 -744.497 -114.2042 -1.64923 364.534 -46.547 6.7407 15.2983 0.0 15.6524 0.0 8.37909 -14.6153 -2.96075 0.0 0.0 0.0 0.0 0.0 0.0 121.6438 -4.66687 -361.381 48.5336 2.67089 -367.493 0.0 19.7064 0.0 3.67693 -8.99254 15.1356 0.0 0.0 0.0 0.0 0.0 0.0 -2.47679 0.158428 -366.636 0.0 18.147 0.0 -20.8019 -5.5762005 9.96781 0.0 -19.55795 0.0 0.59427 -0.304262 8.46301 0.0 22.3419 0.0 30.8016 -15.0354 -9.66249 0.0 -16.48979 0.0 
  -2.248730010986328 -0.6261539840698243 9.333099975585938 32.5273 83.9582 -36.8443 3.66861 -12.8568 1.35211 -10.8545 23.2622 5.20148 17.3002 49.3856 -9.59236 -22.9204 -86.0708 -744.252 -114.2083 -1.67059 364.523 -46.5212 6.74759 15.3436 0.0 15.6525 0.0 8.38923 -14.606 -2.855 0.0 0.0 0.0 0.0 0.0 0.0 121.6216 -4.6426 -361.362 48.5616 2.67531 -367.486 0.0 19.7124 0.0 3.72348 -9.05355 15.172 0.0 0.0 0.0 0.0 0.0 0.0 -2.47528 0.125426 -366.681 0.0 18.169 0.0 -20.8551 -5.5898 9.93714 0.0 -19.51073 0.0 0.604358 -0.308512 8.45895 0.0 22.3416 0.0 30.8108 -15.072599 -9.69221 0.0 -16.48119 0.0 
  -2.249409942626953 -0.6261840057373047 9.332890014648438 32.4763 83.9546 -36.7852 3.66551 -12.8594 1.35329 -10.8545 23.2819 5.21305 17.3326 49.3718 -9.62994 -22.6967 -86.0462 -744.021 -114.2013 -1.646 364.523 -46.5078 6.74295 15.3667 0.0 15.662 0.0 8.4118 -14.6013 -2.82754 0.0 0.0 0.0 0.0 0.0 0.0 121.6555 -4.62885 -361.359 48.5121 2.68076 -367.487 0.0 19.7942 0.0 3.80469 -9.226 15.2125 0.0 0.0 0.0 0.0 0.0 0.0 -2.46922 0.118035 -366.695 0.0 18.1986 0.0 -20.8235 -5.5884 9.94025 0.0 -19.52884 0.0 0.606852 -0.296533 8.43481 0.0 22.3294 0.0 30.7733 -15.0679 -9.69446 0.0 -16.47357 0.0 
  -2.2504200744628906 -0.6264960098266602 9.3325 32.4479 83.9515 -36.7393 3.66237 -12.8608 1.3519 -10.8567 23.3033 5.22073 17.3344 49.3702 -9.62768 -22.5922 -86.041 -743.917 -114.2036 -1.63218 364.514 -46.4728 6.73858 15.4036 0.0 15.6843 0.0 8.43684 -14.6246 -2.68118 0.0 0.0 0.0 0.0 0.0 0.0 121.6599 -4.63219 -361.355 48.5073 2.71123 -367.52 0.0 19.8153 0.0 3.83533 -9.27186 15.1406 0.0 0.0 0.0 0.0 0.0 0.0 -2.46209 0.105129 -366.673 0.0 18.2313 0.0 -20.8865 -5.6028996 9.88656 0.0 -19.55365 0.0 0.614674 -0.284849 8.41805 0.0 22.3269 0.0 30.8441 -15.0849 -9.65954 0.0 -16.49302 0.0 
  -2.251300048828125 -0.6261370086669922 9.33260009765625 32.3208 83.957 -36.5657 3.66214 -12.8552 1.32326 -10.8458 23.3571 5.20819 17.1443 49.3939 -9.38165 -22.6548 -86.0882 -744.025 -114.2353 -1.64942 364.463 -46.4159 6.75064 15.5079 0.0 15.7036 0.0 8.45795 -14.6007 -2.79842 0.0 0.0 0.0 0.0 0.0 0.0 121.6878 -4.64838 -361.338 48.466 2.76908 -367.597 0.0 19.8576 0.0 3.86213 -9.28844 15.1292 0.0 0.0 0.0 0.0 0.0 0.0 -2.45066 0.0724582 -366.763 0.0 18.2954 0.0 -20.8647 -5.6203995 9.924 0.0 -19.57489 0.0 0.635372 -0.277234 8.38286 0.0 22.3278 0.0 30.807 -15.0723 -9.69439 0.0 -16.48091 0.0 
  -2.252270050048828 -0.6256470108032226 9.332109985351563 32.262 83.953 -36.4986 3.65991 -12.8409 1.31485 -10.8434 23.3833 5.2085 17.1174 49.3722 -9.35252 -22.5345 -86.0802 -743.874 -114.2298 -1.63813 364.447 -46.3978 6.7499 15.5393 0.0 15.7042 0.0 8.47485 -14.5666 -2.77355 0.0 0.0 0.0 0.0 0.0 0.0 121.685196 -4.62337 -361.34 48.4598 2.78934 -367.647 0.0 19.8997 0.0 3.86689 -9.29131 15.1502 0.0 0.0 0.0 0.0 0.0 0.0 -2.44281 0.0518675 -366.76 0.0 18.3449 0.0 -20.8906 -5.6476 9.89941 0.0 -19.52512 0.0 0.648023 -0.286758 8.39182 0.0 22.3608 0.0 30.7661 -15.086 -9.71541 0.0 -16.48666 0.0 
  -2.253769989013672 -0.6261460113525391 9.331829833984376 32.3575 83.955 -36.598 3.63533 -12.8725 1.29863 -10.8289 23.4506 5.23978 17.0732 49.3284 -9.3071 -22.2197 -86.0452 -743.544 -114.2311 -1.62874 364.431 -46.3795 6.76743 15.6168 0.0 15.7345 0.0 8.53693 -14.6442 -2.68617 0.0 0.0 0.0 0.0 0.0 0.0 121.6912 -4.63156 -361.359 48.4367 2.87574 -367.74 0.0 19.9157 0.0 3.8436 -9.30077 15.2236 0.0 0.0 0.0 0.0 0.0 0.0 -2.44288 0.0247504 -366.749 0.0 18.3934 0.0 -20.9233 -5.6648006 9.87674 0.0 -19.5114 0.0 0.652909 -0.298798 8.39579 0.0 22.3753 0.0 30.7828 -15.1038 -9.70319 0.0 -16.481739 0.0 
  -2.2550399780273436 -0.626353988647461 9.33156005859375 32.3494 83.9534 -36.5843 3.61605 -12.8956 1.26926 -10.8109 23.5236 5.25289 17.0102 49.2952 -9.24512 -22.0479 -86.0118 -743.353 -114.2298 -1.61904 364.414 -46.3767 6.78207 15.6161 0.0 15.7349 0.0 8.57697 -14.6305 -2.61275 0.0 0.0 0.0 0.0 0.0 0.0 121.6875 -4.58746 -361.375 48.4221 2.90802 -367.774 0.0 19.9415 0.0 3.78817 -9.23909 15.2319 0.0 0.0 0.0 0.0 0.0 0.0 -2.4442 -0.00192621 -366.79 0.0 18.4557 0.0 -20.9282 -5.6889 9.89868 0.0 -19.5221 0.0 0.663206 -0.308107 8.38697 0.0 22.4039 0.0 30.7989 -15.1112995 -9.69538 0.0 -16.50794 0.0 
  -2.2558799743652345 -0.6265029907226562 9.331309814453125 32.302 83.9553 -36.5312 3.60771 -12.9103 1.25313 -10.7959 23.5804 5.26773 16.9468 49.2821 -9.15564 -21.6187 -85.9856 -742.931 -114.236404 -1.60647 364.409 -46.3622 6.79682 15.6368 0.0 15.7529 0.0 8.58997 -14.6294 -2.62219 0.0 0.0 0.0 0.0 0.0 0.0 121.7037 -4.60961 -361.389 48.3888 2.9826 -367.842 0.0 19.9637 0.0 3.79618 -9.31074 15.3244 0.0 0.0 0.0 0.0 0.0 0.0 -2.43743 -0.0184495 -366.802 0.0 18.4961 0.0 -20.962 -5.712 9.8866 0.0 -19.52087 0.0 0.675268 -0.314967 8.38286 0.0 22.4249 0.0 30.7972 -15.115 -9.69398 0.0 -16.51 0.0 
  -2.257310028076172 -0.6265969848632813 9.33072021484375 32.2322 83.9491 -36.4675 3.60891 -12.9282 1.24005 -10.8079 23.7078 5.29442 16.9523 49.2028 -9.16173 -21.0127 -85.9427 -742.261 -114.2424 -1.61316 364.375 -46.3332 6.85111 15.6564 0.0 15.7693 0.0 8.64235 -14.6359 -2.44918 0.0 0.0 0.0 0.0 0.0 0.0 121.6938 -4.58421 -361.379 48.3951 3.06252 -367.894 0.0 19.9186 0.0 3.84065 -9.16732 15.3515 0.0 0.0 0.0 0.0 0.0 0.0 -2.42167 -0.0315242 -366.756 0.0 18.5459 0.0 -20.9433 -5.7213 9.84561 0.0 -19.52786 0.0 0.689639 -0.334852 8.38146 0.0 22.4899 0.0 30.7642 -15.135599 -9.68671 0.0 -16.49316 0.0 
  -2.2583999633789062 -0.6276050186157227 9.330549926757813 32.2886 83.9485 -36.5264 3.60325 -12.9702 1.22426 -10.8172 23.817 5.31884 16.9269 49.1621 -9.13416 -20.6853 -85.9081 -741.932 -114.2538 -1.61336 364.361 -46.3065 6.89107 15.5573 0.0 15.8292 0.0 8.56837 -14.8118 -2.43584 0.0 0.0 0.0 0.0 0.0 0.0 121.6905 -4.53667 -361.401 48.3955 3.10738 -367.928 0.0 19.9425 0.0 3.78137 -9.19324 15.2892 0.0 0.0 0.0 0.0 0.0 0.0 -2.42091 -0.0302519 -366.768 0.0 18.5535 0.0 -20.9715 -5.7346992 9.83416 0.0 -19.54083 0.0 0.693685 -0.3481 8.39879 0.0 22.5241 0.0 30.7697 -15.1499 -9.67803 0.0 -16.52353 0.0 
  -2.2596699523925783 -0.6283670043945313 9.330170288085938 32.3771 83.9446 -36.6208 3.59107 -12.9966 1.21758 -10.822 23.9078 5.35375 16.9825 49.1499 -9.18905 -20.2828 -85.8704 -741.509 -114.248505 -1.59945 364.36 -46.2956 6.92403 15.5736 0.0 15.8352 0.0 8.58784 -14.7578 -2.40907 0.0 0.0 0.0 0.0 0.0 0.0 121.6868 -4.52085 -361.428 48.3835 3.19451 -368.002 0.0 19.863 0.0 3.79921 -9.02197 15.2956 0.0 0.0 0.0 0.0 0.0 0.0 -2.42114 -0.0293083 -366.749 0.0 18.5595 0.0 -21.0387 -5.752199 9.78727 0.0 -19.54864 0.0 0.69747 -0.381237 8.41328 0.0 22.6008 0.0 30.7909 -15.1856 -9.64728 0.0 -16.5432 0.0 
  -2.2609300231933593 -0.6292929840087891 9.32947998046875 32.5262 83.9396 -36.7734 3.57218 -13.0344 1.20421 -10.8316 23.9921 5.38056 17.1289 49.0964 -9.36583 -19.6649 -85.7794 -740.863 -114.2332 -1.57038 364.371 -46.2921 6.94491 15.5657 0.0 15.8156 0.0 8.59959 -14.6723 -2.38647 0.0 0.0 0.0 0.0 0.0 0.0 121.6631 -4.43818 -361.481 48.4038 3.22044 -367.973 0.0 19.8533 0.0 3.76632 -8.98469 15.2971 0.0 0.0 0.0 0.0 0.0 0.0 -2.43009 -0.036968 -366.75 0.0 18.5802 0.0 -21.089 -5.7812004 9.76109 0.0 -19.54579 0.0 0.697282 -0.41953 8.4376 0.0 22.6847 0.0 30.7943 -15.2355995 -9.6266 0.0 -16.54497 0.0 
